#N canvas 0 30 510 568 10;
#X obj 61 137 sput~;
#X obj 69 18 notein;
#X floatatom 65 46 5 0 0 0 - - -;
#X floatatom 106 48 5 0 0 0 - - -;
#X floatatom 145 47 5 0 0 0 - - -;
#X obj 70 67 pack;
#X msg 68 94 notein \$1 \$2;
#X obj 68 201 vol~;
#X floatatom 105 154 5 0 0 0 - - -;
#X obj 64 233 dac~;
#X msg 259 79 75 \; pd dsp 1;
#X obj 259 58 loadbang;
#X obj 160 304 mtof;
#X floatatom 165 333 5 0 0 0 - - -;
#X floatatom 154 252 5 0 0 0 - - -;
#X floatatom 246 238 5 0 0 0 - - -;
#X obj 248 208 fiddle~;
#X obj 81 335 ctlin 7;
#X obj 101 388 ctlin;
#X floatatom 99 409 5 0 0 0 - - -;
#X obj 328 391 * 10;
#X obj 11 187 lop~;
#X floatatom 29 154 5 0 0 0 - - -;
#X obj 319 333 ctlin 74;
#X connect 0 0 16 0;
#X connect 0 0 21 0;
#X connect 1 0 2 0;
#X connect 1 1 3 0;
#X connect 1 2 4 0;
#X connect 2 0 5 0;
#X connect 2 0 14 0;
#X connect 3 0 5 1;
#X connect 5 0 6 0;
#X connect 6 0 0 0;
#X connect 7 0 9 0;
#X connect 7 0 9 1;
#X connect 8 0 7 1;
#X connect 10 0 8 0;
#X connect 11 0 10 0;
#X connect 12 0 13 0;
#X connect 14 0 12 0;
#X connect 16 0 15 0;
#X connect 17 0 8 0;
#X connect 18 1 19 0;
#X connect 20 0 22 0;
#X connect 21 0 7 0;
#X connect 22 0 21 1;
#X connect 23 0 20 0;
