#N canvas 0 483 718 415 10;
#X obj 61 137 sput~;
#X obj 69 18 notein;
#X floatatom 65 46 5 0 0 0 - - -;
#X floatatom 106 48 5 0 0 0 - - -;
#X floatatom 145 47 5 0 0 0 - - -;
#X obj 70 67 pack;
#X msg 68 94 notein \$1 \$2;
#X connect 1 0 2 0;
#X connect 1 1 3 0;
#X connect 1 2 4 0;
#X connect 2 0 5 0;
#X connect 3 0 5 1;
#X connect 5 0 6 0;
#X connect 6 0 0 0;
