#N canvas 0 33 1438 415 10;
#X obj 61 137 sput~;
#X obj 69 18 notein;
#X floatatom 65 46 5 0 0 0 - - -;
#X floatatom 106 48 5 0 0 0 - - -;
#X floatatom 145 47 5 0 0 0 - - -;
#X obj 70 67 pack;
#X msg 68 94 notein \$1 \$2;
#X obj 63 172 vol~;
#X floatatom 105 154 5 0 0 0 - - -;
#X obj 64 233 dac~;
#X msg 259 79 75 \; pd dsp 1;
#X obj 259 58 loadbang;
#X connect 0 0 7 0;
#X connect 1 0 2 0;
#X connect 1 1 3 0;
#X connect 1 2 4 0;
#X connect 2 0 5 0;
#X connect 3 0 5 1;
#X connect 5 0 6 0;
#X connect 6 0 0 0;
#X connect 7 0 9 0;
#X connect 7 0 9 1;
#X connect 8 0 7 1;
#X connect 10 0 8 0;
#X connect 11 0 10 0;
